# xmcd
#
# Track frame offsets: 
#        150
#        15957
#        43445
#        65582
#        97455
#        118560
#        132637
#        149790
#        168285
#        183275
#        199467
#        212695
#        235250
#        256815
#        275650
#
# Disc length: 3938 seconds
#
# Revision: 1
# Processed by: cddbd v1.5.2PL0 Copyright (c) Steve Scherf et al.
# Submitted via: ExactAudioCopy v1.0b3
#
DISCID=f10f600f
DTITLE=Willie Lomax Blues Revue - Ribs Are Ready
DYEAR=1999
DGENRE=Blues
TTITLE0=Back Rub
TTITLE1=Don't Know What I Did
TTITLE2=For Better Or Worse
TTITLE3=Too Many Fences
TTITLE4=People Get Ready
TTITLE5=Ribs Are Ready
TTITLE6=Eddie Mae's Cafe
TTITLE7=She's So Sweet
TTITLE8=Hip Joint
TTITLE9=Don't Fight The Feeling
TTITLE10=Struttin'
TTITLE11=Take Away Your Loneliness
TTITLE12=I Want To Show You
TTITLE13=Freedom Is In Your Heart
TTITLE14=Too Many Fences (radio edit)
EXTD=
EXTT0=
EXTT1=
EXTT2=
EXTT3=
EXTT4=
EXTT5=
EXTT6=
EXTT7=
EXTT8=
EXTT9=
EXTT10=
EXTT11=
EXTT12=
EXTT13=
EXTT14=
PLAYORDER=
